<?xml version="1.0" encoding="UTF-8"?>
<svg xmlns="http://www.w3.org/2000/svg" viewBox="0 0 696.13 902.41">
  <defs>
    <style>
      .cls-1 {
        isolation: isolate;
      }

      .cls-1, .cls-2 {
        fill: none;
      }

      .cls-3 {
        fill: #25ced1;
      }

      .cls-4 {
        fill: #020202;
      }

      .cls-4, .cls-5 {
        opacity: .25;
      }

      .cls-4, .cls-5, .cls-6 {
        mix-blend-mode: soft-light;
      }

      .cls-5, .cls-7 {
        fill: #fff;
      }

      .cls-6, .cls-8 {
        fill: #fceade;
      }

      .cls-2 {
        stroke: #2f2f2f;
        stroke-width: 13px;
      }

      .cls-2, .cls-7 {
        stroke-miterlimit: 10;
      }

      .cls-7 {
        stroke: #fff;
        stroke-width: 2px;
      }

      .cls-7, .cls-9, .cls-8 {
        opacity: .4;
      }

      .cls-9 {
        fill: #dcefee;
      }
    </style>
  </defs>
  <g class="cls-1">
    <g id="Lag_1" data-name="Lag 1">
      <rect class="cls-3" x="0" y="0" width="696.13" height="902.41" rx="348.07" ry="348.07"/>
      <g>
        <path class="cls-9" d="m176.91,123.61h326.76c2.28,0,4.13,1.85,4.13,4.13v580.02c0,25.72-20.88,46.61-46.61,46.61h-241.8c-25.72,0-46.61-20.88-46.61-46.61V127.74c0-2.28,1.85-4.13,4.13-4.13Z"/>
        <path class="cls-8" d="m172.78,674.23h335.02v32.82c0,26.11-21.2,47.31-47.31,47.31h-240.39c-26.11,0-47.31-21.2-47.31-47.31v-32.82h0Z"/>
        <path class="cls-8" d="m172.78,127.74c0-2.28,1.58-4.13,3.53-4.13h327.95c1.95,0,3.53,1.85,3.53,4.13H172.78Z"/>
        <g>
          <line class="cls-2" x1="477.04" y1="54.34" x2="404.43" y2="674.23"/>
          <line class="cls-7" x1="476.84" y1="112.14" x2="463.86" y2="110.81"/>
          <line class="cls-7" x1="476.3" y1="116.73" x2="463.32" y2="115.41"/>
          <line class="cls-7" x1="475.76" y1="121.26" x2="462.78" y2="119.94"/>
        </g>
        <rect class="cls-6" x="201.5" y="134.29" width="68.26" height="539.93"/>
        <rect class="cls-6" x="290.4" y="134.29" width="27.13" height="539.93"/>
        <g>
          <g>
            <path class="cls-5" d="m488.38,509.14l16.88,65.02c.87,3.36-1.14,6.79-4.5,7.66l-65.02,16.88c-3.36.87-6.79-1.14-7.66-4.5l-16.88-65.02c-.87-3.36,1.14-6.79,4.5-7.66l65.02-16.88c3.36-.87,6.79,1.14,7.66,4.5Z"/>
            <path class="cls-5" d="m417.21,528.29l16.55,63.75c.12.48.61.76,1.09.64l63.75-16.55c.48-.12.76-.61.64-1.09l-16.55-63.75c-.12-.48-.61-.76-1.09-.64l-63.75,16.55c-.48.12-.76.61-.64,1.09Z"/>
          </g>
          <g>
            <path class="cls-5" d="m488.38,509.14l16.88,65.02c.87,3.36-1.14,6.79-4.5,7.66l-65.02,16.88c-3.36.87-6.79-1.14-7.66-4.5l-16.88-65.02c-.87-3.36,1.14-6.79,4.5-7.66l65.02-16.88c3.36-.87,6.79,1.14,7.66,4.5Z"/>
            <path class="cls-5" d="m417.21,528.29l16.55,63.75c.12.48.61.76,1.09.64l63.75-16.55c.48-.12.76-.61.64-1.09l-16.55-63.75c-.12-.48-.61-.76-1.09-.64l-63.75,16.55c-.48.12-.76.61-.64,1.09Z"/>
          </g>
        </g>
        <g>
          <g>
            <path class="cls-5" d="m385.55,561.45l52.79,41.54c2.73,2.15,3.2,6.1,1.05,8.82l-41.54,52.79c-2.15,2.73-6.1,3.2-8.82,1.05l-52.79-41.54c-2.73-2.15-3.2-6.1-1.05-8.82l41.54-52.79c2.15-2.73,6.1-3.2,8.82-1.05Z"/>
            <path class="cls-5" d="m340.49,619.77l51.76,40.73c.39.31.95.24,1.25-.15l40.73-51.76c.31-.39.24-.95-.15-1.25l-51.76-40.73c-.39-.3-.95-.24-1.26.15l-40.73,51.76c-.31.39-.24.95.15,1.25Z"/>
          </g>
          <g>
            <path class="cls-5" d="m385.55,561.45l52.79,41.54c2.73,2.15,3.2,6.1,1.05,8.82l-41.54,52.79c-2.15,2.73-6.1,3.2-8.82,1.05l-52.79-41.54c-2.73-2.15-3.2-6.1-1.05-8.82l41.54-52.79c2.15-2.73,6.1-3.2,8.82-1.05Z"/>
            <path class="cls-5" d="m340.49,619.77l51.76,40.73c.39.31.95.24,1.25-.15l40.73-51.76c.31-.39.24-.95-.15-1.25l-51.76-40.73c-.39-.3-.95-.24-1.26.15l-40.73,51.76c-.31.39-.24.95.15,1.25Z"/>
          </g>
        </g>
      </g>
      <ellipse class="cls-4" cx="340.29" cy="753.93" rx="266.06" ry="13.61"/>
    </g>
  </g>
</svg>