<?xml version="1.0" encoding="UTF-8"?>
<svg xmlns="http://www.w3.org/2000/svg" viewBox="0 0 359.04 654.18">
  <defs>
    <style>
      .cls-1 {
        fill: none;
        isolation: isolate;
      }

      .cls-2 {
        mix-blend-mode: soft-light;
      }

      .cls-2, .cls-3 {
        fill: #fceade;
      }

      .cls-4 {
        fill: #dcefee;
      }

      .cls-4, .cls-3 {
        opacity: .4;
      }
    </style>
  </defs>
  <g class="cls-1">
    <g id="Lag_1" data-name="Lag 1">
      <g>
        <path class="cls-4" d="m14.92,7.18h326.76c2.28,0,4.13,1.85,4.13,4.13v580.02c0,25.72-20.88,46.61-46.61,46.61H57.4c-25.72,0-46.61-20.88-46.61-46.61V11.3c0-2.28,1.85-4.13,4.13-4.13Z"/>
        <path class="cls-3" d="m10.79,557.79h335.02v32.82c0,26.11-21.2,47.31-47.31,47.31H58.1c-26.11,0-47.31-21.2-47.31-47.31v-32.82h0Z"/>
        <path class="cls-3" d="m10.79,11.3c0-2.28,1.58-4.13,3.53-4.13h327.95c1.95,0,3.53,1.85,3.53,4.13H10.79Z"/>
        <rect class="cls-2" x="39.51" y="17.86" width="68.26" height="539.93"/>
        <rect class="cls-2" x="128.41" y="17.86" width="27.13" height="539.93"/>
      </g>
    </g>
  </g>
</svg>