<?xml version="1.0" encoding="UTF-8"?>
<svg xmlns="http://www.w3.org/2000/svg" viewBox="0 0 135.69 131.87">
  <defs>
    <style>
      .cls-1 {
        fill: none;
        isolation: isolate;
      }

      .cls-2 {
        fill: #fff;
        mix-blend-mode: soft-light;
        opacity: .25;
      }
    </style>
  </defs>
  <g class="cls-1">
    <g id="Lag_1" data-name="Lag 1">
      <g>
        <g>
          <path class="cls-2" d="m95.52,21.03l16.88,65.02c.87,3.36-1.14,6.79-4.5,7.66l-65.02,16.88c-3.36.87-6.79-1.14-7.66-4.5L18.34,41.07c-.87-3.36,1.14-6.79,4.5-7.66l65.02-16.88c3.36-.87,6.79,1.14,7.66,4.5Z"/>
          <path class="cls-2" d="m24.36,40.19l16.55,63.75c.12.48.61.76,1.09.64l63.75-16.55c.48-.12.76-.61.64-1.09l-16.55-63.75c-.12-.48-.61-.76-1.09-.64l-63.75,16.55c-.48.12-.76.61-.64,1.09Z"/>
        </g>
        <g>
          <path class="cls-2" d="m95.52,21.03l16.88,65.02c.87,3.36-1.14,6.79-4.5,7.66l-65.02,16.88c-3.36.87-6.79-1.14-7.66-4.5L18.34,41.07c-.87-3.36,1.14-6.79,4.5-7.66l65.02-16.88c3.36-.87,6.79,1.14,7.66,4.5Z"/>
          <path class="cls-2" d="m24.36,40.19l16.55,63.75c.12.48.61.76,1.09.64l63.75-16.55c.48-.12.76-.61.64-1.09l-16.55-63.75c-.12-.48-.61-.76-1.09-.64l-63.75,16.55c-.48.12-.76.61-.64,1.09Z"/>
        </g>
      </g>
    </g>
  </g>
</svg>