<?xml version="1.0" encoding="UTF-8"?>
<svg xmlns="http://www.w3.org/2000/svg" viewBox="0 0 248.23 227.89">
  <defs>
    <style>
      .cls-1 {
        fill: none;
        isolation: isolate;
      }

      .cls-2 {
        fill: #ff5a5f;
      }

      .cls-3 {
        fill: #364710;
      }

      .cls-4 {
        fill: #020202;
        mix-blend-mode: soft-light;
        opacity: .35;
      }
    </style>
  </defs>
  <g class="cls-1">
    <g id="Lag_1" data-name="Lag 1">
      <g>
        <path class="cls-2" d="m78.22,73.55c16.83-16.66,39.68-25.93,62.68-31.59,23-5.66,46.68-8.12,69.76-13.46-4.06,30.44-13.11,60.21-26.66,87.77-9.9,20.14-22.57,39.49-40.49,53-6.72,5.06-14.2,9.29-22.37,11.31-19.76,4.9-37.77-5.4-50.17-20.24-4.13-4.94-7.64-10.39-10.38-15.95-11.7-23.71-.2-53.2,17.63-70.85Z"/>
        <path class="cls-4" d="m70.98,160.34c-4.13-4.94-7.64-10.39-10.38-15.95-11.7-23.71-.2-53.2,17.63-70.85,16.83-16.66,39.68-25.93,62.68-31.59,23-5.66,46.68-8.12,69.76-13.46-26.98,34.3-59.44,66.58-93.71,95.58-15.08,12.76-30.51,24.89-45.97,36.27Z"/>
        <path class="cls-3" d="m210.68,28.51c-41.07,51.81-90.56,96.82-144.27,135.24,0,0-23.35,16.06-23.35,16.06-.2-.06,23.17-16.32,23.13-16.36,53.41-38.75,103.25-83.41,144.48-134.94h0Z"/>
      </g>
    </g>
  </g>
</svg>