<?xml version="1.0" encoding="UTF-8"?>
<svg id="Lag_1" data-name="Lag 1" xmlns="http://www.w3.org/2000/svg" viewBox="0 0 368.18 280.12">
  <defs>
    <style>
      .cls-1 {
        fill: #f99348;
      }

      .cls-2 {
        fill: #ffc1b0;
      }

      .cls-3 {
        fill: #ff8a5b;
      }

      .cls-4 {
        fill: #d85903;
      }
    </style>
  </defs>
  <path class="cls-1" d="m344.99,184.5c-38.93,66.64-134.24,83.41-212.9,37.47C53.45,176.02,21.24,84.76,60.17,18.12l284.83,166.38Z"/>
  <path class="cls-4" d="m345.08,184.55c-30.33,54.63-99.29,74.32-157.77,60.8-58.94-12.69-112.15-54.57-134.35-111.15-14.92-37.23-14.14-81.57,7.12-116.14-19.92,34.59-20.98,78.63-5.67,115.56,22.36,55.88,74.99,97.1,133.29,109.93,58.51,13.63,125.93-5.73,157.38-59.01h0Z"/>
  <path class="cls-2" d="m138.18,211.56c72.79,42.52,160.9,27.65,196.41-33.14L70.57,24.2c-35.51,60.79-5.18,144.84,67.6,187.36Z"/>
  <g>
    <g>
      <path class="cls-3" d="m76.88,130.27c11.49,25.88,31.63,50.11,58.77,68.32,1.93,1.29,4.53.72,5.65-1.2l49.94-85.49c1.68-2.88-.97-6.49-4.34-5.89l-107.19,19.02c-2.44.43-3.85,2.97-2.84,5.24Z"/>
      <path class="cls-3" d="m75.62,37.92c-11.11,22.67-12.41,48.58-5.38,73.91.55,1.98,2.59,3.25,4.63,2.93l100.27-15.53c3.65-.57,4.43-5.31,1.19-7.21l-95.15-55.58c-2-1.17-4.57-.51-5.55,1.48Z"/>
    </g>
    <g>
      <path class="cls-3" d="m239.09,225.03c-28.19,2.7-59.18-2.94-88.38-17.64-2.07-1.04-2.86-3.59-1.73-5.51l49.94-85.49c1.68-2.88,6.13-2.34,7.26.89l36.09,102.71c.82,2.34-.69,4.81-3.17,5.04Z"/>
      <path class="cls-3" d="m320.16,180.76c-14.29,20.81-36.22,34.67-61.74,40.99-1.99.49-4.1-.66-4.83-2.59l-35.72-94.97c-1.3-3.46,2.45-6.47,5.7-4.57l95.15,55.58c2,1.17,2.69,3.73,1.44,5.56Z"/>
    </g>
  </g>
</svg>